# xmcd
#
# Track frame offsets:
#	150
#	16860
#	33528
#	50023
#	70122
#	85409
#	101927
#	120616
#	133166
#	149679
#	166118
#	179390
#
# Disc length: 2609 seconds
#
# Revision: 0
# Processed by: cddbd v1.5.1PL0 Copyright (c) Steve Scherf et al.
# Submitted via: dBpowerAMP V4.0
#
DISCID=ad0a2f0c
DTITLE=Rune Rudberg - Gone Country
DYEAR=2004
DGENRE=Country
TTITLE0=Rigth now (Two minutes)
TTITLE1=Wath about you?
TTITLE2=Celebrity
TTITLE3=Young mans town
TTITLE4=When you smile
TTITLE5=Back in baby's arms
TTITLE6=I'm already there
TTITLE7=Don't know why I do it
TTITLE8=When love ain't enough
TTITLE9=I wont take less
TTITLE10=Turn back time
TTITLE11=Somebody like you
EXTD=
EXTT0=
EXTT1=
EXTT2=
EXTT3=
EXTT4=
EXTT5=
EXTT6=
EXTT7=
EXTT8=
EXTT9=
EXTT10=
EXTT11=
PLAYORDER=
